<svg id="visual" viewBox="0 0 960 540" width="960" height="540" xmlns="http://www.w3.org/2000/svg" xmlns:xlink="http://www.w3.org/1999/xlink" version="1.1"><rect x="0" y="0" width="960" height="540" fill="#0b0b0b"></rect><defs><linearGradient id="grad1_0" x1="43.8%" y1="0%" x2="100%" y2="100%"><stop offset="14.444444444444446%" stop-color="#0b0b0b" stop-opacity="1"></stop><stop offset="85.55555555555554%" stop-color="#0b0b0b" stop-opacity="1"></stop></linearGradient></defs><defs><linearGradient id="grad2_0" x1="0%" y1="0%" x2="56.3%" y2="100%"><stop offset="14.444444444444446%" stop-color="#0b0b0b" stop-opacity="1"></stop><stop offset="85.55555555555554%" stop-color="#0b0b0b" stop-opacity="1"></stop></linearGradient></defs><g transform="translate(960, 0)"><path d="M0 243C-25.8 231.4 -51.7 219.9 -65.2 200.7C-78.7 181.4 -80 154.5 -108.2 148.9C-136.4 143.2 -191.5 158.7 -196.6 142.8C-201.7 127 -156.6 79.7 -156 50.7C-155.4 21.6 -199.2 10.8 -243 0L0 0Z" fill="#a3fda1"></path></g><g transform="translate(0, 540)"><path d="M0 -243C15 -212.6 30 -182.3 59 -181.7C88.1 -181 131.2 -210.1 142.8 -196.6C154.5 -183.1 134.7 -126.9 135.9 -98.7C137.1 -70.6 159.4 -70.5 180.7 -58.7C202 -46.9 222.5 -23.5 243 0L0 0Z" fill="#a3fda1"></path></g></svg>